<?xml version="1.0" encoding="utf-8"?>
<!-- Generator: Adobe Illustrator 18.0.0, SVG Export Plug-In . SVG Version: 6.00 Build 0)  -->
<!DOCTYPE svg PUBLIC "-//W3C//DTD SVG 1.1//EN" "http://www.w3.org/Graphics/SVG/1.1/DTD/svg11.dtd">
<svg version="1.1"
	 id="Layer_1" xmlns:inkscape="http://www.inkscape.org/namespaces/inkscape" xmlns:sodipodi="http://sodipodi.sourceforge.net/DTD/sodipodi-0.dtd" xmlns:svg="http://www.w3.org/2000/svg" xmlns:rdf="http://www.w3.org/1999/02/22-rdf-syntax-ns#" xmlns:dc="http://purl.org/dc/elements/1.1/" xmlns:cc="http://creativecommons.org/ns#" inkscape:output_extension="org.inkscape.output.svg.inkscape" sodipodi:docname="20090101024514!Metro-M.svg" inkscape:version="0.46" sodipodi:version="0.32"
	 xmlns="http://www.w3.org/2000/svg" xmlns:xlink="http://www.w3.org/1999/xlink" x="0px" y="0px" viewBox="191.5 191.8 20 20"
	 enable-background="new 191.5 191.8 20 20" xml:space="preserve">
<defs>
	
	
		<inkscape:perspective  sodipodi:type="inkscape:persp3d" id="perspective10" inkscape:vp_y="0 : 1000 : 0" inkscape:vp_z="400 : 200 : 1" inkscape:vp_x="0 : 200 : 1" inkscape:persp3d-origin="200 : 133.33333 : 1">
		</inkscape:perspective>
</defs>
<sodipodi:namedview  inkscape:zoom="1.165" borderopacity="1.0" pagecolor="#ffffff" bordercolor="#666666" inkscape:cy="200" inkscape:cx="126.90217" showgrid="false" id="base" guidetolerance="10.0" gridtolerance="10.0" objecttolerance="10.0" inkscape:current-layer="Layer_1" inkscape:window-y="0" inkscape:window-x="207" inkscape:pageopacity="0.0" inkscape:pageshadow="2" inkscape:window-width="1231" inkscape:window-height="942">
	</sodipodi:namedview>
<g>
	<path d="M201.6,192.1c-5.4,0-9.8,4.4-9.8,9.8c0,5.4,4.4,9.7,9.8,9.7c5.4,0,9.7-4.3,9.7-9.7C211.3,196.5,206.8,192.1,201.6,192.1z
		 M201.6,210.3c-4.6,0-8.4-3.8-8.4-8.4c0-4.7,3.8-8.5,8.4-8.5c4.6,0,8.4,3.9,8.4,8.5C210,206.5,206.2,210.3,201.6,210.3z"/>
	<path d="M201.6,192.1c5.2,0,9.7,4.4,9.7,9.8c0,5.4-4.3,9.7-9.7,9.7s-9.8-4.3-9.8-9.7C191.8,196.5,196.2,192.1,201.6,192.1
		 M201.6,210.3c4.6,0,8.4-3.8,8.4-8.4c0-4.6-3.8-8.5-8.4-8.5c-4.6,0-8.4,3.9-8.4,8.5C193.1,206.5,196.9,210.3,201.6,210.3
		 M201.6,191.8c-5.5,0-10,4.5-10,10c0,5.5,4.5,10,10,10c5.5,0,10-4.5,10-10C211.5,196.4,207,191.8,201.6,191.8L201.6,191.8z
		 M201.6,210.1c-4.5,0-8.2-3.7-8.2-8.2c0-4.6,3.7-8.3,8.2-8.3c4.5,0,8.1,3.7,8.1,8.3C209.7,206.4,206.1,210.1,201.6,210.1
		L201.6,210.1z"/>
</g>
<g>
	<path id="path3_3_" d="M206.1,205.9V198c0-0.5-0.2-0.9-1-0.9c-0.6,0-0.8,0.3-1,0.8l-2.5,5.1h0l-2.5-5.1c-0.3-0.5-0.5-0.8-1-0.8
		c-0.7,0-1,0.5-1,0.9v7.9c0,0.4,0.3,0.7,0.7,0.7c0.4,0,0.8-0.2,0.8-0.7V200h0l2.2,4.6c0.2,0.3,0.4,0.5,0.7,0.5
		c0.4,0,0.6-0.2,0.7-0.5l2.2-4.6h0v5.9c0,0.4,0.4,0.7,0.8,0.7C205.7,206.6,206.1,206.4,206.1,205.9z"/>
	<path id="path3_1_" d="M205.1,197.1c0.8,0,1,0.5,1,0.9v7.9c0,0.4-0.3,0.7-0.7,0.7c-0.4,0-0.8-0.2-0.8-0.7V200h0l-2.2,4.6
		c-0.2,0.3-0.4,0.5-0.7,0.5c-0.4,0-0.6-0.2-0.7-0.5l-2.2-4.6h0v5.9c0,0.4-0.4,0.7-0.8,0.7c-0.4,0-0.7-0.2-0.7-0.7V198
		c0-0.5,0.3-0.9,1-0.9c0.6,0,0.8,0.3,1,0.8l2.5,5.1h0l2.5-5.1C204.3,197.3,204.5,197.1,205.1,197.1 M205.1,196.8
		c-0.7,0-1,0.3-1.2,0.9l-2.3,4.7l-2.3-4.7c-0.3-0.6-0.6-0.9-1.3-0.9c-0.9,0-1.2,0.6-1.2,1.2v7.9c0,0.5,0.4,0.9,1,0.9
		c0.5,0,1-0.3,1-0.9v-5l1.8,3.8c0.1,0.3,0.4,0.6,0.9,0.6c0.6,0,0.8-0.4,0.9-0.6l1.8-3.8v5c0,0.6,0.5,0.9,1,0.9c0.6,0,1-0.4,1-0.9
		V198C206.3,197.5,206,196.8,205.1,196.8L205.1,196.8z"/>
</g>
</svg>
